<?xml version="1.0" encoding="utf-8"?>
<svg viewBox="0 0 668.333 667.826" xmlns="http://www.w3.org/2000/svg">
  <g id="g10" transform="matrix(1.333333, 0, 0, -1.333333, -269.679697, 597.783008)">
    <g id="g12" transform="scale(0.1)">
      <path d="M 2020.819 -525.334 L 7035.209 -525.334 L 7035.209 4489.054 L 2020.819 4489.054 L 2020.819 -525.334" style="fill:#758ed0;fill-opacity:1;fill-rule:evenodd;stroke:none" id="path170"/>
      <path d="M 3012.099 842.284 L 6063.329 842.284 C 6148.599 842.284 6218.369 772.514 6218.369 687.244 L 6218.369 687.224 C 6218.369 601.944 6148.599 532.194 6063.329 532.194 L 3012.099 532.194 C 2926.829 532.194 2857.049 601.944 2857.049 687.224 L 2857.049 687.244 C 2857.049 772.514 2926.829 842.284 3012.099 842.284" style="fill:#5f7ac5;fill-opacity:1;fill-rule:evenodd;stroke:none" id="path172"/>
      <path d="M 3771.879 1436.374 L 2654.119 1436.374 L 2405.729 1494.594 L 2405.729 1552.824 L 3587.529 1552.824 L 3587.529 2623.994 L 3793.219 2623.994 L 3793.219 1436.374 L 3771.879 1436.374" style="fill:#3b54ad;fill-opacity:1;fill-rule:evenodd;stroke:none" id="path174"/>
      <path d="M 3685.709 1291.834 L 3828.519 1291.834 L 3828.519 2860.754 L 3685.709 2860.754 L 3685.709 1291.834" style="fill:#252817;fill-opacity:1;fill-rule:evenodd;stroke:none" id="path176"/>
      <path d="M 3914.709 1525.494 L 4012.499 1346.434 L 4016.899 1362.864 L 4016.899 1157.454 L 4366.199 1157.454 L 4366.199 1161.334 L 4851.329 1161.334 L 4851.329 1359.284 L 4366.199 1359.284 L 4366.199 1545.574 C 4366.199 1641.614 4287.609 1720.204 4191.549 1720.204 L 4112.659 1720.204 L 4320.779 2496.934 C 4343.869 2583.114 4419.329 2641.014 4508.549 2641.014 L 5182.179 2641.014 L 5182.179 1550.444 L 5314.129 1550.444 L 5314.129 2768.174 L 4537.549 2768.174 C 4364.159 2768.174 4217.539 2655.684 4172.659 2488.194 Z M 5025.989 2108.344 L 5095.839 2108.344 L 5095.839 1444.664 L 4556.379 1444.664 L 4556.379 1535.874 C 4556.379 1586.044 4597.409 1627.094 4647.589 1627.094 L 4956.119 1627.094 L 4956.119 2038.474 C 4956.119 2076.904 4987.549 2108.344 5025.989 2108.344 L 5025.989 2108.344" style="fill:#252817;fill-opacity:1;fill-rule:evenodd;stroke:none" id="path178"/>
      <path d="M 3772.669 1383.454 L 3914.709 1525.494 L 4239.069 1525.494 L 4239.069 1236.064 L 4646.589 1236.064 L 5057.979 1647.454 L 5351.939 1647.454 C 5489.309 1647.454 5601.339 1535.424 5601.339 1398.044 L 5601.339 1224.424 L 5019.169 987.664 L 4013.969 987.664 L 3772.669 1383.454" style="fill:#3b54ad;fill-opacity:1;fill-rule:evenodd;stroke:none" id="path180"/>
      <path d="M 5370.409 1302.044 C 5536.559 1302.044 5671.199 1167.384 5671.199 1001.264 C 5671.199 835.124 5536.559 700.464 5370.409 700.464 C 5204.279 700.464 5069.609 835.124 5069.609 1001.264 C 5069.609 1167.384 5204.279 1302.044 5370.409 1302.044 Z M 3666.599 1302.044 C 3832.739 1302.044 3967.389 1167.384 3967.389 1001.264 C 3967.389 835.124 3832.739 700.464 3666.599 700.464 C 3500.469 700.464 3365.809 835.124 3365.809 1001.264 C 3365.809 1167.384 3500.469 1302.044 3666.599 1302.044 L 3666.599 1302.044" style="fill:#1c1a19;fill-opacity:1;fill-rule:evenodd;stroke:none" id="path182"/>
      <path d="M 5370.409 1161.994 C 5281.569 1161.994 5209.649 1090.094 5209.649 1001.264 C 5209.649 912.414 5281.569 840.504 5370.409 840.504 C 5459.259 840.504 5531.169 912.414 5531.169 1001.264 C 5531.169 1090.094 5459.259 1161.994 5370.409 1161.994 Z M 3666.599 1161.994 C 3577.759 1161.994 3505.849 1090.094 3505.849 1001.264 C 3505.849 912.414 3577.759 840.504 3666.599 840.504 C 3755.429 840.504 3827.349 912.414 3827.349 1001.264 C 3827.349 1090.094 3755.429 1161.994 3666.599 1161.994 L 3666.599 1161.994" style="fill:#e8e8e7;fill-opacity:1;fill-rule:evenodd;stroke:none" id="path184"/>
      <path d="M 3270.059 1001.264 C 3270.059 1110.754 3314.439 1209.894 3386.209 1281.634 C 3457.969 1353.424 3557.099 1397.794 3666.599 1397.794 C 3776.089 1397.794 3875.239 1353.424 3946.999 1281.634 C 4006.529 1222.114 4047.209 1143.744 4059.359 1056.264 L 4977.639 1056.264 C 4989.789 1143.744 5030.489 1222.114 5090.009 1281.634 C 5161.779 1353.424 5260.919 1397.794 5370.409 1397.794 C 5479.909 1397.794 5579.049 1353.424 5650.799 1281.634 C 5722.569 1209.894 5766.969 1110.754 5766.969 1001.264 L 5656.959 1001.264 C 5656.959 1080.394 5624.869 1152.034 5573.019 1203.874 C 5521.189 1255.714 5449.539 1287.784 5370.409 1287.784 C 5291.269 1287.784 5219.639 1255.714 5167.799 1203.874 C 5115.959 1152.034 5083.889 1080.394 5083.889 1001.264 L 5083.889 946.244 L 3953.129 946.244 L 3953.129 1001.264 C 3953.129 1080.394 3921.059 1152.034 3869.209 1203.874 C 3817.369 1255.714 3745.739 1287.784 3666.599 1287.784 C 3587.469 1287.784 3515.819 1255.714 3463.979 1203.874 C 3412.139 1152.034 3380.069 1080.394 3380.069 1001.264 L 3270.059 1001.264" style="fill:#d6e1f4;fill-opacity:1;fill-rule:evenodd;stroke:none" id="path186"/>
      <path d="M 2656.069 1552.824 L 3587.529 1552.824 L 3587.529 2503.694 L 2656.069 2503.694 L 2656.069 1552.824" style="fill:#ecca77;fill-opacity:1;fill-rule:evenodd;stroke:none" id="path188"/>
      <path d="M 3032.529 2264.994 L 3211.069 2264.994 L 3211.069 2503.694 L 3032.529 2503.694 L 3032.529 2264.994" style="fill:#6c5a34;fill-opacity:1;fill-rule:evenodd;stroke:none" id="path190"/>
      <path d="M 5451.379 1775.384 L 6650.319 1775.384 L 6650.319 3220.694 L 5451.379 3220.694 L 5451.379 1775.384" style="fill:#252817;fill-opacity:1;fill-rule:evenodd;stroke:none" id="path192"/>
      <path d="M 5539.979 1894.884 L 6561.689 1894.884 L 6561.689 3272.864 L 5539.979 3272.864 L 5539.979 1894.884" style="fill:#edeeed;fill-opacity:1;fill-rule:evenodd;stroke:none" id="path194"/>
      <path d="M 5981.669 3316.414 L 6114.359 3316.414 L 6114.359 3321.934 C 6114.359 3332.384 6110.049 3341.934 6103.129 3348.864 C 6096.209 3355.784 6086.669 3360.074 6076.219 3360.074 L 6019.819 3360.074 C 6009.359 3360.074 5999.829 3355.784 5992.899 3348.864 C 5985.979 3341.934 5981.669 3332.384 5981.669 3321.934 Z M 5866.559 3316.414 L 5910.239 3316.414 L 5910.239 3321.934 C 5910.239 3352.104 5922.559 3379.504 5942.399 3399.364 C 5962.239 3419.194 5989.659 3431.524 6019.819 3431.524 L 6076.219 3431.524 C 6106.399 3431.524 6133.789 3419.194 6153.649 3399.364 C 6173.489 3379.504 6185.799 3352.104 6185.799 3321.934 L 6185.799 3316.414 L 6235.139 3316.414 L 6235.139 3134.964 L 5866.559 3134.964 L 5866.559 3316.414 L 5866.559 3316.414" style="fill:#ffffff;fill-opacity:1;fill-rule:evenodd;stroke:none" id="path196"/>
      <path d="M 4958.609 3706.894 C 4973.059 3706.894 4984.779 3695.194 4984.779 3680.754 C 4984.779 3666.294 4973.059 3654.584 4958.609 3654.584 L 4283.029 3654.584 C 4268.569 3654.584 4256.859 3666.294 4256.859 3680.754 C 4256.859 3695.194 4268.569 3706.894 4283.029 3706.894 Z M 4133.509 3318.324 C 4119.069 3318.324 4107.349 3330.044 4107.349 3344.504 C 4107.349 3358.934 4119.069 3370.654 4133.509 3370.654 L 4670.649 3370.654 C 4685.099 3370.654 4696.819 3358.934 4696.819 3344.504 C 4696.819 3330.044 4685.099 3318.324 4670.649 3318.324 L 4133.509 3318.324 Z M 3540.989 57.854 C 3526.539 57.854 3514.819 69.574 3514.819 84.004 C 3514.819 98.454 3526.539 110.154 3540.989 110.154 L 4847.859 110.154 C 4862.309 110.154 4874.009 98.454 4874.009 84.004 C 4874.009 69.574 4862.309 57.854 4847.859 57.854 L 3540.989 57.854 Z M 6132.569 1102.634 C 6118.129 1102.634 6106.409 1114.354 6106.409 1128.814 C 6106.409 1143.254 6118.129 1154.974 6132.569 1154.974 L 6774.949 1154.974 C 6789.379 1154.974 6801.099 1143.254 6801.099 1128.814 C 6801.099 1114.354 6789.379 1102.634 6774.949 1102.634 L 6132.569 1102.634 Z M 6110.429 1438.894 C 6095.979 1438.894 6084.259 1450.614 6084.259 1465.074 C 6084.259 1479.504 6095.979 1491.224 6110.429 1491.224 L 6475.909 1491.224 C 6490.349 1491.224 6502.059 1479.504 6502.059 1465.074 C 6502.059 1450.614 6490.349 1438.894 6475.909 1438.894 L 6110.429 1438.894 Z M 5578.829 189.944 C 5564.369 189.944 5552.649 201.664 5552.649 216.114 C 5552.649 230.554 5564.369 242.274 5578.829 242.274 L 6287.629 242.274 C 6302.079 242.274 6313.799 230.554 6313.799 216.114 C 6313.799 201.664 6302.079 189.944 6287.629 189.944 L 5578.829 189.944 Z M 2455.619 1030.584 C 2441.179 1030.584 2429.459 1042.304 2429.459 1056.744 C 2429.459 1071.204 2441.179 1082.924 2455.619 1082.924 L 2931.849 1082.924 C 2946.299 1082.924 2958.019 1071.204 2958.019 1056.744 C 2958.019 1042.304 2946.299 1030.584 2931.849 1030.584 L 2455.619 1030.584 Z M 2544.219 69.854 C 2529.769 69.854 2518.059 81.574 2518.059 96.004 C 2518.059 110.454 2529.769 122.174 2544.219 122.174 L 2965.079 122.174 C 2979.529 122.174 2991.239 110.454 2991.239 96.004 C 2991.239 81.574 2979.529 69.854 2965.079 69.854 L 2544.219 69.854 Z M 3175.499 -158.316 C 3161.049 -158.316 3149.339 -146.596 3149.339 -132.156 C 3149.339 -117.726 3161.049 -106.006 3175.499 -106.006 L 4349.469 -106.006 C 4363.919 -106.006 4375.639 -117.726 4375.639 -132.156 C 4375.639 -146.596 4363.919 -158.316 4349.469 -158.316 L 3175.499 -158.316 Z M 5002.909 -146.306 C 4988.459 -146.306 4976.739 -134.596 4976.739 -120.156 C 4976.739 -105.706 4988.459 -93.986 5002.909 -93.986 L 5390.549 -93.986 C 5404.979 -93.986 5416.699 -105.706 5416.699 -120.156 C 5416.699 -134.596 5404.979 -146.306 5390.549 -146.306 L 5002.909 -146.306 Z M 2333.799 3036.114 C 2319.349 3036.114 2307.629 3047.824 2307.629 3062.284 C 2307.629 3076.724 2319.349 3088.444 2333.799 3088.444 L 3120.139 3088.444 C 3134.569 3088.444 3146.289 3076.724 3146.289 3062.284 C 3146.289 3047.824 3134.569 3036.114 3120.139 3036.114 L 2333.799 3036.114 Z M 3618.519 3228.264 C 3604.069 3228.264 3592.349 3239.984 3592.349 3254.424 C 3592.349 3268.864 3604.069 3280.574 3618.519 3280.574 L 3917.539 3280.574 C 3931.989 3280.574 3943.709 3268.864 3943.709 3254.424 C 3943.709 3239.984 3931.989 3228.264 3917.539 3228.264 L 3618.519 3228.264 Z M 5434.839 3540.514 C 5420.389 3540.514 5408.689 3552.224 5408.689 3566.654 C 5408.689 3581.104 5420.389 3592.824 5434.839 3592.824 L 5689.579 3592.824 C 5704.019 3592.824 5715.739 3581.104 5715.739 3566.654 C 5715.739 3552.224 5704.019 3540.514 5689.579 3540.514 L 5434.839 3540.514 Z M 5456.989 3828.714 C 5442.549 3828.714 5430.829 3840.424 5430.829 3854.884 C 5430.829 3869.324 5442.549 3881.044 5456.989 3881.044 L 6110.429 3881.044 C 6124.879 3881.044 6136.589 3869.324 6136.589 3854.884 C 6136.589 3840.424 6124.879 3828.714 6110.429 3828.714 L 5456.989 3828.714 Z M 2677.119 3708.624 C 2662.669 3708.624 2650.959 3720.334 2650.959 3734.794 C 2650.959 3749.234 2662.669 3760.954 2677.119 3760.954 L 3574.209 3760.954 C 3588.659 3760.954 3600.369 3749.234 3600.369 3734.794 C 3600.369 3720.334 3588.659 3708.624 3574.209 3708.624 L 2677.119 3708.624 Z M 6143.659 -14.216 C 6129.199 -14.216 6117.499 -2.496 6117.499 11.954 C 6117.499 26.394 6129.199 38.114 6143.659 38.114 L 6697.419 38.114 C 6711.849 38.114 6723.569 26.394 6723.569 11.954 C 6723.569 -2.496 6711.849 -14.216 6697.419 -14.216 L 6143.659 -14.216 Z M 3291.799 4039.154 C 3277.349 4039.154 3265.629 4050.874 3265.629 4065.324 C 3265.629 4079.764 3277.349 4091.484 3291.799 4091.484 L 4831.249 4091.484 C 4845.709 4091.484 4857.409 4079.764 4857.409 4065.324 C 4857.409 4050.874 4845.709 4039.154 4831.249 4039.154 L 3291.799 4039.154 Z M 6104.899 4199.744 C 6090.439 4199.744 6078.739 4211.454 6078.739 4225.914 C 6078.739 4240.354 6090.439 4252.074 6104.899 4252.074 L 6558.979 4252.074 C 6573.429 4252.074 6585.149 4240.354 6585.149 4225.914 C 6585.149 4211.454 6573.429 4199.744 6558.979 4199.744 L 6104.899 4199.744 Z M 4626.359 2397.264 C 4611.909 2397.264 4600.199 2408.964 4600.199 2423.404 C 4600.199 2437.864 4611.909 2449.574 4626.359 2449.574 L 4953.069 2449.574 C 4967.529 2449.574 4979.249 2437.864 4979.249 2423.404 C 4979.249 2408.964 4967.529 2397.264 4953.069 2397.264 L 4626.359 2397.264 Z M 4393.779 2109.314 C 4379.329 2109.314 4367.629 2121.014 4367.629 2135.454 C 4367.629 2149.914 4379.329 2161.634 4393.779 2161.634 L 4633.229 2161.634 C 4647.679 2161.634 4659.399 2149.914 4659.399 2135.454 C 4659.399 2121.014 4647.679 2109.314 4633.229 2109.314 L 4393.779 2109.314 Z M 4194.429 2959.314 C 4179.979 2959.314 4168.269 2971.034 4168.269 2985.494 C 4168.269 2999.924 4179.979 3011.644 4194.429 3011.644 L 4692.819 3011.644 C 4707.259 3011.644 4718.979 2999.924 4718.979 2985.494 C 4718.979 2971.034 4707.259 2959.314 4692.819 2959.314 L 4194.429 2959.314 Z M 4355.009 323.454 C 4340.569 323.454 4328.849 335.164 4328.849 349.604 C 4328.849 364.044 4340.569 375.754 4355.009 375.754 L 5008.449 375.754 C 5022.899 375.754 5034.619 364.044 5034.619 349.604 C 5034.619 335.164 5022.899 323.454 5008.449 323.454 L 4355.009 323.454 Z M 3142.279 3432.414 C 3127.829 3432.414 3116.119 3444.124 3116.119 3458.564 C 3116.119 3473.024 3127.829 3484.734 3142.279 3484.734 L 3485.609 3484.734 C 3500.059 3484.734 3511.779 3473.024 3511.779 3458.564 C 3511.779 3444.124 3500.059 3432.414 3485.609 3432.414 L 3142.279 3432.414 L 3142.279 3432.414" style="fill:#95acdf;fill-opacity:1;fill-rule:evenodd;stroke:none" id="path198"/>
      <path d="M 5667.429 2982.714 L 5667.429 2863.674 L 5786.489 2863.674 L 5786.489 2982.714 Z M 5639.739 3010.404 L 5814.169 3010.404 L 5814.169 2835.984 L 5639.739 2835.984 L 5639.739 3010.404 L 5639.739 3010.404" style="fill:#cdcccb;fill-opacity:1;fill-rule:evenodd;stroke:none" id="path200"/>
      <path d="M 5625.799 2945.434 L 5718.569 2860.284 L 5868.069 2998.724 L 5798.849 3040.954 L 5714.419 2901.134 L 5631.339 2964.794 L 5625.799 2945.434" style="fill:#769a2a;fill-opacity:1;fill-rule:evenodd;stroke:none" id="path202"/>
      <path d="M 5913.859 2979.954 L 6412.239 2979.954 L 6412.239 3010.404 L 5913.859 3010.404 L 5913.859 2979.954" style="fill:#ffffff;fill-opacity:1;fill-rule:evenodd;stroke:none" id="path204"/>
      <path d="M 5913.859 2899.184 C 6079.979 2899.184 6246.119 2899.184 6412.239 2899.184 C 6412.239 2894.094 6412.239 2889.034 6412.239 2883.964 C 6246.119 2883.964 6079.979 2883.964 5913.859 2883.964 C 5913.859 2889.034 5913.859 2894.094 5913.859 2899.184 Z M 5913.859 2872.644 L 6412.239 2872.644 L 6412.239 2857.434 L 5913.859 2857.434 L 5913.859 2872.644 Z M 5913.859 2952.254 L 6412.239 2952.254 L 6412.239 2937.034 L 5913.859 2937.034 L 5913.859 2952.254 Z M 5913.859 2925.714 C 6079.979 2925.714 6246.119 2925.714 6412.239 2925.714 C 6412.239 2920.654 6412.239 2915.564 6412.239 2910.504 C 6246.119 2910.504 6079.979 2910.504 5913.859 2910.504 C 5913.859 2915.564 5913.859 2920.654 5913.859 2925.714 L 5913.859 2925.714" style="fill:#b2b1b0;fill-opacity:1;fill-rule:evenodd;stroke:none" id="path206"/>
      <path d="M 5667.429 2717.534 C 5667.429 2677.844 5667.429 2638.164 5667.429 2598.474 C 5707.119 2598.474 5746.809 2598.474 5786.489 2598.474 C 5786.489 2638.164 5786.489 2677.844 5786.489 2717.534 C 5746.809 2717.534 5707.119 2717.534 5667.429 2717.534 Z M 5639.739 2745.224 C 5697.889 2745.224 5756.039 2745.224 5814.169 2745.224 C 5814.169 2687.074 5814.169 2628.934 5814.169 2570.784 C 5756.039 2570.784 5697.889 2570.784 5639.739 2570.784 C 5639.739 2628.934 5639.739 2687.074 5639.739 2745.224 L 5639.739 2745.224" style="fill:#cdcccb;fill-opacity:1;fill-rule:evenodd;stroke:none" id="path208"/>
      <path d="M 5625.799 2680.244 C 5656.719 2651.864 5687.649 2623.494 5718.569 2595.104 C 5768.389 2641.244 5818.239 2687.394 5868.069 2733.544 C 5844.999 2747.624 5821.929 2761.694 5798.849 2775.774 C 5770.719 2729.164 5742.559 2682.544 5714.419 2635.934 C 5686.709 2657.164 5659.029 2678.404 5631.339 2699.634 C 5629.499 2693.164 5627.639 2686.694 5625.799 2680.244" style="fill:#769a2a;fill-opacity:1;fill-rule:evenodd;stroke:none" id="path210"/>
      <path d="M 5913.859 2745.224 C 6079.979 2745.224 6246.119 2745.224 6412.239 2745.224 C 6412.239 2735.074 6412.239 2724.914 6412.239 2714.774 C 6246.119 2714.774 6079.979 2714.774 5913.859 2714.774 C 5913.859 2724.914 5913.859 2735.074 5913.859 2745.224" style="fill:#ffffff;fill-opacity:1;fill-rule:evenodd;stroke:none" id="path212"/>
      <path d="M 5913.859 2634.004 C 6079.979 2634.004 6246.119 2634.004 6412.239 2634.004 C 6412.239 2628.914 6412.239 2623.854 6412.239 2618.774 C 6246.119 2618.774 6079.979 2618.774 5913.859 2618.774 C 5913.859 2623.854 5913.859 2628.914 5913.859 2634.004 Z M 5913.859 2607.464 C 6079.979 2607.464 6246.119 2607.464 6412.239 2607.464 C 6412.239 2602.384 6412.239 2597.324 6412.239 2592.234 C 6246.119 2592.234 6079.979 2592.234 5913.859 2592.234 C 5913.859 2597.324 5913.859 2602.384 5913.859 2607.464 Z M 5913.859 2687.074 C 6079.979 2687.074 6246.119 2687.074 6412.239 2687.074 C 6412.239 2682.004 6412.239 2676.924 6412.239 2671.834 C 6246.119 2671.834 6079.979 2671.834 5913.859 2671.834 C 5913.859 2676.924 5913.859 2682.004 5913.859 2687.074 Z M 5913.859 2660.554 C 6079.979 2660.554 6246.119 2660.554 6412.239 2660.554 C 6412.239 2655.474 6412.239 2650.384 6412.239 2645.304 C 6246.119 2645.304 6079.979 2645.304 5913.859 2645.304 C 5913.859 2650.384 5913.859 2655.474 5913.859 2660.554 L 5913.859 2660.554" style="fill:#b2b1b0;fill-opacity:1;fill-rule:evenodd;stroke:none" id="path214"/>
      <path d="M 5667.429 2452.354 C 5667.429 2412.664 5667.429 2372.964 5667.429 2333.294 C 5707.119 2333.294 5746.809 2333.294 5786.489 2333.294 C 5786.489 2372.964 5786.489 2412.664 5786.489 2452.354 C 5746.809 2452.354 5707.119 2452.354 5667.429 2452.354 Z M 5639.739 2480.044 C 5697.889 2480.044 5756.039 2480.044 5814.169 2480.044 C 5814.169 2421.894 5814.169 2363.734 5814.169 2305.604 C 5756.039 2305.604 5697.889 2305.604 5639.739 2305.604 C 5639.739 2363.734 5639.739 2421.894 5639.739 2480.044 L 5639.739 2480.044" style="fill:#cdcccb;fill-opacity:1;fill-rule:evenodd;stroke:none" id="path216"/>
      <path d="M 5625.799 2415.064 C 5656.719 2386.664 5687.649 2358.294 5718.569 2329.924 C 5768.389 2376.064 5818.239 2422.214 5868.069 2468.364 C 5844.999 2482.424 5821.929 2496.514 5798.849 2510.574 C 5770.719 2463.964 5742.559 2417.364 5714.419 2370.754 C 5686.709 2391.984 5659.029 2413.204 5631.339 2434.434 C 5629.499 2427.984 5627.639 2421.514 5625.799 2415.064" style="fill:#769a2a;fill-opacity:1;fill-rule:evenodd;stroke:none" id="path218"/>
      <path d="M 5913.859 2480.044 C 6079.979 2480.044 6246.119 2480.044 6412.239 2480.044 C 6412.239 2469.874 6412.239 2459.724 6412.239 2449.574 C 6246.119 2449.574 6079.979 2449.574 5913.859 2449.574 C 5913.859 2459.724 5913.859 2469.874 5913.859 2480.044" style="fill:#ffffff;fill-opacity:1;fill-rule:evenodd;stroke:none" id="path220"/>
      <path d="M 5913.859 2368.824 C 6079.979 2368.824 6246.119 2368.824 6412.239 2368.824 C 6412.239 2363.734 6412.239 2358.654 6412.239 2353.594 C 6246.119 2353.594 6079.979 2353.594 5913.859 2353.594 C 5913.859 2358.654 5913.859 2363.734 5913.859 2368.824 Z M 5913.859 2342.284 C 6079.979 2342.284 6246.119 2342.284 6412.239 2342.284 C 6412.239 2337.204 6412.239 2332.124 6412.239 2327.054 C 6246.119 2327.054 6079.979 2327.054 5913.859 2327.054 C 5913.859 2332.124 5913.859 2337.204 5913.859 2342.284 Z M 5913.859 2421.894 C 6079.979 2421.894 6246.119 2421.894 6412.239 2421.894 C 6412.239 2416.804 6412.239 2411.724 6412.239 2406.654 C 6246.119 2406.654 6079.979 2406.654 5913.859 2406.654 C 5913.859 2411.724 5913.859 2416.804 5913.859 2421.894 Z M 5913.859 2395.354 C 6079.979 2395.354 6246.119 2395.354 6412.239 2395.354 C 6412.239 2390.274 6412.239 2385.184 6412.239 2380.124 C 6246.119 2380.124 6079.979 2380.124 5913.859 2380.124 C 5913.859 2385.184 5913.859 2390.274 5913.859 2395.354 L 5913.859 2395.354" style="fill:#b2b1b0;fill-opacity:1;fill-rule:evenodd;stroke:none" id="path222"/>
      <path d="M 5667.429 2187.154 L 5667.429 2068.114 L 5786.489 2068.114 L 5786.489 2187.154 Z M 5639.739 2214.844 L 5814.169 2214.844 L 5814.169 2040.424 L 5639.739 2040.424 L 5639.739 2214.844 L 5639.739 2214.844" style="fill:#cdcccb;fill-opacity:1;fill-rule:evenodd;stroke:none" id="path224"/>
      <path d="M 5625.799 2149.884 L 5718.569 2064.724 L 5868.069 2203.164 L 5798.849 2245.394 L 5714.419 2105.564 L 5631.339 2169.244 L 5625.799 2149.884" style="fill:#769a2a;fill-opacity:1;fill-rule:evenodd;stroke:none" id="path226"/>
      <path d="M 5913.859 2184.394 L 6412.239 2184.394 L 6412.239 2214.844 L 5913.859 2214.844 L 5913.859 2184.394" style="fill:#ffffff;fill-opacity:1;fill-rule:evenodd;stroke:none" id="path228"/>
      <path d="M 5913.859 2103.624 C 6079.979 2103.624 6246.119 2103.624 6412.239 2103.624 C 6412.239 2098.544 6412.239 2093.474 6412.239 2088.414 C 6246.119 2088.414 6079.979 2088.414 5913.859 2088.414 C 5913.859 2093.474 5913.859 2098.544 5913.859 2103.624 Z M 5913.859 2077.084 L 6412.239 2077.084 L 6412.239 2061.874 L 5913.859 2061.874 L 5913.859 2077.084 Z M 5913.859 2156.694 L 6412.239 2156.694 L 6412.239 2141.474 L 5913.859 2141.474 L 5913.859 2156.694 Z M 5913.859 2130.154 C 6079.979 2130.154 6246.119 2130.154 6412.239 2130.154 C 6412.239 2125.094 6412.239 2120.004 6412.239 2114.944 C 6246.119 2114.944 6079.979 2114.944 5913.859 2114.944 C 5913.859 2120.004 5913.859 2125.094 5913.859 2130.154 L 5913.859 2130.154" style="fill:#b2b1b0;fill-opacity:1;fill-rule:evenodd;stroke:none" id="path230"/>
      <path d="M 4395.619 1830.444 L 4502.569 1742.024 L 4303.609 1501.374 L 4196.649 1589.804 L 4395.619 1830.444" style="fill:#252817;fill-opacity:1;fill-rule:evenodd;stroke:none" id="path232"/>
      <path d="M 4506.299 1923.464 L 4573.149 1868.204 L 4455.979 1726.514 L 4389.139 1781.794 L 4506.299 1923.464" style="fill:#252817;fill-opacity:1;fill-rule:evenodd;stroke:none" id="path234"/>
      <path d="M 4453.899 2034.334 L 4691.869 1837.574 C 4705.109 1826.634 4706.979 1806.844 4696.039 1793.614 L 4696.029 1793.614 C 4685.089 1780.384 4665.309 1778.504 4652.069 1789.444 L 4414.119 1986.204 C 4400.869 1997.144 4398.999 2016.914 4409.949 2030.144 L 4409.949 2030.164 C 4420.889 2043.404 4440.669 2045.274 4453.899 2034.334" style="fill:#3b54ad;fill-opacity:1;fill-rule:evenodd;stroke:none" id="path236"/>
    </g>
  </g>
</svg>